<?xml version="1.0" encoding="utf-8"?>
<!-- Generator: Adobe Illustrator 19.2.1, SVG Export Plug-In . SVG Version: 6.00 Build 0)  -->
<svg version="1.1" id="Layer_1" xmlns="http://www.w3.org/2000/svg" xmlns:xlink="http://www.w3.org/1999/xlink" x="0px" y="0px"
	 viewBox="0 0 32 32" style="enable-background:new 0 0 32 32;" xml:space="preserve">
<style type="text/css">
	.st0{fill:#EFEF11;}
	.st1{fill:#FCFADB;}
	.st2{fill:#23231F;}
	.st3{fill:#B2AE0F;}
</style>
<rect x="8" y="8" class="st0" width="16" height="16"/>
<rect x="4" y="4" class="st1" width="4" height="4"/>
<rect y="4" class="st1" width="4" height="4"/>
<rect class="st1" width="4" height="4"/>
<rect x="4" class="st1" width="4" height="4"/>
<rect x="2" y="4" class="st2" width="4" height="4"/>
<rect x="8" y="24" class="st2" width="4" height="4"/>
<rect x="20" y="24" class="st2" width="4" height="4"/>
<rect x="8" y="28" class="st2" width="4" height="4"/>
<rect x="4" y="28" class="st2" width="4" height="4"/>
<rect y="28" class="st2" width="4" height="4"/>
<rect x="28" y="28" class="st2" width="4" height="4"/>
<rect x="24" y="28" class="st2" width="4" height="4"/>
<rect x="20" y="28" class="st2" width="4" height="4"/>
<rect x="24" y="4" class="st1" width="4" height="4"/>
<rect x="28" y="4" class="st1" width="4" height="4"/>
<rect x="28" class="st1" width="4" height="4"/>
<rect x="24" class="st1" width="4" height="4"/>
<rect x="16" y="18" class="st3" width="4" height="4"/>
<rect x="16" y="14" class="st3" width="4" height="4"/>
<rect x="12" y="14" class="st3" width="4" height="4"/>
<rect x="26" y="4" class="st2" width="4" height="4"/>
</svg>
